<?xml version="1.0" standalone="no"?>
<!DOCTYPE svg PUBLIC "-//W3C//DTD SVG 20010904//EN"
 "http://www.w3.org/TR/2001/REC-SVG-20010904/DTD/svg10.dtd">
<svg version="1.0" xmlns="http://www.w3.org/2000/svg"
 width="2000.000000pt" height="2000.000000pt" viewBox="0 0 2000.000000 2000.000000"
 preserveAspectRatio="xMidYMid meet">
<metadata>
Created by potrace 1.14, written by Peter Selinger 2001-2017
</metadata>
<g transform="translate(0.000000,2000.000000) scale(0.100000,-0.100000)"
fill="#000000" stroke="none">
<path d="M11762 16823 c4 -15 -13 -104 -27 -136 -7 -18 -14 -36 -14 -42 -2
-22 -15 -52 -37 -86 -13 -20 -20 -40 -17 -43 4 -3 -1 -6 -10 -6 -9 0 -17 -7
-17 -16 0 -8 -4 -12 -10 -9 -5 3 -10 2 -10 -3 0 -6 -19 -19 -42 -30 -24 -12
-36 -21 -27 -22 8 0 34 -16 56 -35 22 -19 43 -32 47 -30 3 3 4 2 1 -2 -3 -3 3
-16 14 -27 23 -25 71 -116 71 -133 0 -7 4 -13 8 -13 4 0 8 -8 9 -17 6 -63 16
-148 18 -151 2 -2 10 32 19 75 10 43 31 111 47 152 31 74 86 160 104 161 6 0
19 7 29 15 20 15 20 15 1 29 -11 8 -24 12 -30 9 -5 -4 -7 -3 -4 1 4 4 -12 26
-35 49 -47 47 -74 89 -98 157 -23 63 -31 102 -29 127 1 11 -3 24 -9 28 -6 3
-9 3 -8 -2z"/>
<path d="M6122 15914 c-17 -12 -22 -24 -20 -47 3 -28 8 -34 49 -47 42 -13 48
-19 62 -60 8 -25 38 -112 67 -194 147 -426 205 -777 181 -1095 -6 -80 -15
-147 -20 -149 -5 -2 -7 -11 -4 -21 12 -48 -105 -401 -134 -401 -15 0 -15 5 -3
130 10 100 -4 342 -26 455 -3 17 -15 77 -26 135 -81 420 -312 957 -471 1100
-30 26 -31 30 -18 54 11 20 12 31 3 51 -27 59 -142 2 -142 -70 0 -28 31 -47
69 -40 44 7 50 2 144 -135 129 -188 246 -463 326 -764 37 -137 75 -326 67
-333 -3 -4 -2 -11 3 -17 27 -33 48 -431 28 -528 -9 -42 -34 -52 -41 -15 -2 12
-17 90 -32 172 -14 83 -40 197 -57 255 -16 58 -30 113 -31 123 0 9 -4 17 -8
17 -4 0 -8 5 -8 12 0 50 -164 421 -262 591 -29 51 -52 95 -50 100 1 4 -2 7 -6
7 -5 0 -24 24 -42 53 -38 59 -189 259 -203 268 -5 4 -7 19 -3 33 3 14 9 37 12
49 6 27 -17 57 -44 57 -27 0 -81 -38 -94 -65 -8 -18 -8 -31 1 -52 10 -25 15
-28 54 -25 41 4 43 2 92 -60 261 -327 450 -699 571 -1122 44 -156 51 -196 33
-196 -14 0 -137 246 -132 262 2 5 0 8 -5 8 -4 0 -23 30 -42 67 -19 37 -38 72
-43 78 -35 47 -134 215 -129 219 3 3 1 6 -5 6 -6 0 -23 19 -38 43 -16 23 -52
75 -82 114 -29 40 -53 75 -53 78 -1 2 -13 17 -28 33 -15 15 -49 55 -77 87 -27
33 -83 95 -124 137 -70 74 -73 79 -67 113 13 69 -12 95 -67 71 -43 -18 -69
-49 -69 -81 0 -35 14 -47 59 -54 31 -5 51 -20 113 -86 41 -45 98 -107 125
-139 98 -115 284 -366 270 -366 -3 0 4 -9 14 -19 21 -21 150 -234 154 -254 1
-7 5 -14 8 -17 18 -16 150 -291 144 -301 -4 -5 -2 -9 3 -9 10 0 82 -166 82
-187 0 -23 -22 -14 -79 35 -53 46 -208 168 -371 292 -218 165 -413 336 -403
353 3 5 2 7 -4 4 -13 -8 -86 67 -76 78 5 4 3 5 -3 2 -10 -6 -93 74 -172 167
-18 21 -34 37 -37 35 -2 -2 32 -42 75 -89 43 -47 75 -89 72 -94 -3 -5 0 -6 5
-3 13 8 36 -17 25 -28 -4 -5 -2 -6 4 -2 5 3 51 -36 100 -86 117 -119 249 -233
454 -392 236 -184 341 -275 334 -288 -4 -7 -3 -9 1 -4 5 4 33 -16 62 -45 52
-51 66 -78 41 -78 -13 0 -115 37 -133 48 -5 4 -15 7 -21 8 -29 5 -252 109
-248 116 3 4 -1 6 -8 3 -38 -15 -678 380 -678 418 0 6 -3 7 -7 4 -3 -4 -18 3
-32 15 -14 13 -20 16 -13 6 7 -9 44 -40 82 -69 39 -29 70 -57 70 -61 0 -4 5
-8 10 -8 9 0 166 -104 180 -120 6 -6 17 -13 196 -115 77 -44 183 -100 235
-125 52 -25 96 -47 99 -50 3 -3 10 -6 15 -7 6 -1 66 -25 135 -52 142 -57 166
-81 79 -81 -65 0 -179 21 -179 32 0 5 -5 6 -10 3 -13 -8 -160 26 -160 37 0 4
-6 5 -13 2 -35 -13 -544 187 -530 209 3 6 1 7 -6 3 -7 -5 -51 14 -104 44 -123
70 -337 210 -337 221 0 5 -5 9 -12 9 -6 0 -20 8 -30 17 -18 16 -18 16 -12 0 3
-9 9 -17 14 -17 4 0 47 -30 96 -67 257 -194 616 -373 909 -454 235 -64 372
-88 418 -71 19 7 39 12 45 12 13 0 57 -137 102 -319 32 -129 33 -142 9 -147
-7 -2 -25 -5 -39 -9 -14 -3 -43 -8 -64 -10 -21 -3 -42 -7 -46 -10 -3 -2 -29
-7 -56 -10 -27 -4 -53 -11 -59 -16 -5 -5 -6 -9 -2 -9 4 0 -8 -16 -27 -35 -20
-19 -33 -35 -31 -35 3 0 -8 -14 -25 -32 -33 -35 -94 -128 -83 -128 4 0 -1 -6
-11 -13 -9 -7 -18 -19 -20 -27 -2 -8 -9 -28 -16 -45 -7 -16 -14 -34 -15 -40
-2 -5 -10 -32 -19 -60 -18 -59 -34 -181 -31 -245 3 -57 15 -160 21 -182 3 -9
6 -25 8 -35 10 -47 38 -147 51 -176 7 -18 20 -48 28 -67 9 -19 17 -39 18 -45
1 -5 18 -37 37 -70 37 -63 86 -115 109 -115 20 0 16 -20 -4 -21 -10 -1 -29 -2
-43 -4 -14 -2 -52 -6 -85 -10 -33 -3 -73 -8 -90 -10 -16 -2 -57 -6 -90 -10
-81 -8 -92 -12 -98 -37 -10 -35 9 -55 75 -80 l63 -24 -3 -177 c-2 -121 0 -177
7 -177 14 0 14 -27 0 -32 -12 -4 -14 -263 -2 -375 6 -62 5 -63 -19 -63 -13 0
-40 9 -61 19 -36 19 -37 19 -62 -1 -27 -21 -33 -59 -12 -75 6 -6 110 -45 230
-88 119 -43 217 -82 217 -85 0 -6 -43 -15 -180 -35 -14 -2 -65 -11 -115 -19
-49 -8 -106 -17 -125 -20 -19 -3 -93 -14 -165 -26 -71 -11 -141 -23 -155 -25
-83 -13 -179 -23 -207 -23 -38 1 -73 -26 -73 -56 0 -12 16 -37 36 -55 26 -25
35 -40 31 -58 -2 -12 -1 -23 2 -23 4 0 12 -32 19 -72 18 -104 52 -250 63 -270
5 -10 9 -29 9 -42 0 -19 4 -23 20 -19 15 4 20 0 20 -15 0 -25 -33 -46 -60 -37
-10 3 -32 -1 -48 -9 -53 -28 -47 -83 13 -111 19 -10 37 -21 40 -25 5 -8 -47
-35 -90 -46 -5 -1 -23 -8 -40 -15 -16 -7 -33 -13 -37 -14 -5 -2 -9 -3 -10 -5
-2 -1 -12 -3 -23 -5 -11 -2 -21 -9 -23 -15 -2 -5 -7 -8 -12 -5 -5 3 -21 0 -37
-6 -54 -22 -69 -27 -169 -63 -55 -20 -105 -36 -111 -36 -13 0 -88 -65 -89 -77
0 -4 -9 -25 -19 -46 -18 -35 -22 -38 -52 -32 -129 24 -274 -13 -412 -105 -203
-136 -284 -297 -280 -555 1 -96 -2 -134 -19 -190 -11 -38 -24 -83 -27 -100 -7
-28 -9 -26 -26 35 -25 90 -104 487 -128 645 -22 147 -47 359 -57 485 -3 47 -8
101 -10 120 -4 46 8 83 68 208 l49 103 52 -6 c158 -20 319 -9 454 30 199 58
383 225 491 446 74 152 95 295 54 375 -35 68 -137 152 -234 193 -112 48 -271
53 -379 12 -159 -60 -327 -240 -409 -438 -57 -136 -72 -213 -77 -398 -5 -163
-6 -173 -38 -253 -18 -46 -36 -79 -40 -73 -7 12 1 709 8 771 3 19 8 76 12 125
8 112 30 306 46 405 10 67 15 78 48 107 23 21 43 31 56 28 89 -19 444 -27 575
-13 218 24 415 127 557 292 100 116 146 252 110 323 -24 46 -104 112 -172 143
-310 141 -714 38 -930 -236 -85 -107 -160 -285 -178 -418 -3 -21 -15 -48 -27
-60 l-21 -21 5 25 c6 30 24 125 30 160 30 182 127 574 203 818 l25 82 40 0
c107 0 275 53 403 127 233 134 371 313 436 563 67 259 63 495 -11 645 -34 69
-51 90 -101 128 -88 67 -336 91 -494 48 -326 -90 -519 -414 -524 -881 -2 -223
48 -413 147 -558 33 -48 38 -62 30 -82 -53 -141 -172 -594 -219 -833 l-24
-117 -27 52 c-17 33 -27 70 -28 98 -3 184 -80 366 -212 501 -191 196 -511 305
-717 243 -131 -39 -232 -213 -226 -391 8 -214 143 -367 385 -432 83 -22 218
-47 313 -57 125 -14 378 -7 439 12 12 3 24 -8 42 -38 21 -37 23 -49 16 -88 -5
-25 -11 -65 -14 -90 -4 -25 -11 -74 -16 -110 -39 -262 -55 -528 -55 -928 0
-177 -3 -322 -7 -322 -5 0 -8 6 -8 13 0 7 -21 53 -46 103 -26 49 -48 107 -51
129 -7 64 -40 191 -67 256 -79 196 -233 341 -416 393 -177 49 -391 52 -512 6
-133 -50 -210 -189 -177 -323 35 -146 366 -342 699 -413 91 -19 308 -25 391
-11 l46 8 41 -63 c52 -81 110 -201 116 -242 3 -17 8 -65 11 -106 11 -136 44
-411 65 -530 38 -220 73 -390 110 -534 11 -44 20 -82 20 -85 0 -3 -29 25 -65
63 -36 37 -65 72 -65 77 0 21 -60 150 -96 206 -158 249 -420 396 -706 395
-119 -1 -226 -52 -287 -138 -98 -140 -81 -422 32 -508 65 -49 191 -94 347
-121 64 -11 294 -14 365 -4 94 13 198 44 264 80 l54 29 36 -29 c90 -73 145
-140 166 -204 l20 -62 -55 -22 c-30 -13 -61 -23 -67 -23 -7 0 -13 -5 -13 -10
0 -6 -3 -9 -7 -8 -14 3 -73 -13 -73 -21 0 -4 -10 -7 -22 -8 -11 -1 -24 -6 -27
-10 -6 -8 -27 -15 -48 -16 -7 0 -13 -4 -13 -9 0 -4 -3 -7 -7 -6 -5 0 -17 -2
-28 -6 -11 -5 -56 -21 -100 -38 -44 -17 -93 -36 -109 -43 -16 -7 -38 -12 -48
-10 -15 3 -25 -14 -16 -27 1 -2 -5 -14 -12 -28 -8 -14 -13 -28 -12 -32 1 -5
-3 -8 -9 -8 -5 0 -7 -4 -4 -10 3 -5 2 -10 -2 -10 -9 0 -50 -110 -45 -122 1 -5
-3 -8 -10 -8 -6 0 -8 -3 -5 -6 3 -4 2 -15 -4 -26 -6 -11 -12 -28 -15 -39 -6
-30 -12 -52 -23 -86 -5 -18 -7 -33 -4 -33 3 0 1 -6 -4 -12 -6 -7 -10 -20 -11
-28 0 -8 -3 -31 -7 -50 -4 -19 -9 -51 -12 -70 -2 -19 -6 -48 -9 -65 -13 -92
-19 -344 -10 -440 13 -123 18 -163 25 -190 4 -16 7 -38 5 -47 -1 -10 1 -18 6
-18 4 0 6 -11 5 -25 -2 -14 1 -25 6 -25 6 0 8 -4 5 -8 -5 -8 17 -108 31 -142
3 -8 7 -22 9 -32 5 -23 50 -157 65 -193 7 -16 13 -32 14 -35 7 -29 18 -50 26
-51 5 -1 13 -2 18 -3 5 0 13 -4 17 -8 4 -5 13 -8 20 -8 7 0 25 -5 41 -12 15
-6 31 -12 35 -12 3 -1 9 -4 13 -8 4 -4 13 -4 21 -1 8 3 14 1 14 -4 0 -5 6 -10
13 -11 17 -1 42 -8 132 -38 44 -14 86 -28 93 -30 23 -7 12 -32 -22 -48 -52
-25 -132 -102 -155 -149 -18 -39 -19 -60 -16 -289 2 -137 2 -248 0 -248 -2 0
-16 11 -31 25 -14 13 -32 22 -38 18 -6 -3 -8 -3 -4 2 7 8 -55 55 -72 55 -6 0
-10 4 -10 9 0 5 -15 14 -32 21 -18 8 -41 20 -50 28 -9 8 -22 11 -27 7 -6 -3
-11 -2 -11 4 0 8 -73 37 -113 45 -7 2 -30 8 -53 14 -56 16 -179 22 -239 10
-27 -5 -58 -9 -67 -9 -10 0 -18 -4 -18 -9 0 -5 -7 -7 -15 -4 -8 4 -15 1 -15
-6 0 -6 -4 -9 -9 -6 -10 7 -103 -38 -151 -73 -61 -44 -145 -135 -186 -201 -21
-35 -37 -66 -36 -68 2 -3 0 -8 -5 -11 -15 -10 -76 -151 -66 -151 3 0 1 -6 -5
-12 -10 -13 -39 -136 -50 -218 -8 -62 -8 -283 0 -350 4 -30 10 -75 13 -100 3
-25 8 -52 11 -60 3 -8 8 -26 11 -40 11 -54 33 -132 41 -145 4 -5 7 -14 8 -20
10 -44 85 -215 95 -215 5 0 9 -7 9 -15 0 -9 8 -28 18 -43 48 -70 78 -114 87
-129 36 -58 185 -214 197 -207 5 3 7 1 6 -4 -2 -6 1 -10 6 -10 5 0 13 -7 18
-16 5 -9 14 -13 20 -10 6 4 8 3 5 -3 -6 -9 84 -73 100 -72 3 0 9 -4 12 -9 10
-15 118 -72 125 -65 3 4 6 1 6 -5 0 -7 8 -12 18 -12 10 0 22 -4 27 -9 11 -10
126 -48 165 -55 14 -3 25 -5 25 -6 0 -4 51 -12 155 -26 45 -6 268 -6 278 0 4
2 32 7 62 11 30 4 58 9 63 12 4 2 20 7 35 9 15 3 46 12 70 20 23 7 49 14 57
14 7 0 15 5 17 10 2 6 12 12 23 14 11 2 25 5 30 6 21 5 36 0 30 -10 -3 -5 -1
-10 6 -10 7 0 9 -3 6 -7 -4 -3 1 -12 11 -20 11 -10 12 -12 2 -8 -10 4 -9 2 2
-8 10 -8 15 -17 11 -20 -3 -4 2 -9 11 -13 9 -3 13 -10 10 -15 -3 -5 0 -9 7 -9
7 0 10 -3 6 -6 -6 -6 2 -19 38 -56 12 -12 14 -18 5 -14 -8 4 -4 -2 10 -14 14
-12 18 -18 10 -14 -15 7 -15 6 39 -53 10 -12 17 -24 14 -26 -2 -3 5 -10 16
-17 12 -6 19 -15 16 -19 -2 -5 7 -17 20 -27 14 -10 25 -25 25 -32 0 -7 5 -10
10 -7 6 3 10 2 10 -3 0 -6 53 -63 117 -128 64 -66 113 -112 108 -104 -5 8 5 2
22 -15 43 -43 84 -75 110 -86 13 -4 23 -12 23 -16 0 -5 16 -17 35 -27 19 -11
35 -23 35 -28 0 -5 5 -6 10 -3 6 3 10 3 10 -2 0 -4 31 -24 68 -43 37 -19 69
-38 70 -43 2 -4 8 -5 13 -1 5 3 9 0 9 -5 0 -6 3 -10 8 -9 4 1 37 -13 75 -30
37 -18 72 -32 77 -32 6 0 18 -4 28 -9 27 -15 47 -22 112 -40 25 -6 56 -16 70
-21 14 -5 36 -12 50 -14 14 -3 35 -7 48 -10 64 -16 142 -30 227 -42 169 -22
493 -22 645 1 19 3 50 7 68 8 17 1 32 5 32 9 0 3 11 5 25 3 14 -1 25 1 25 5 0
5 8 7 17 6 10 -2 33 3 51 11 18 7 37 11 42 8 5 -3 11 -1 15 5 4 6 10 8 15 5 5
-3 11 -1 15 4 3 6 12 8 20 4 8 -3 15 0 15 6 0 6 3 10 8 10 18 -4 72 15 72 24
0 6 3 8 6 5 6 -7 44 8 134 50 30 14 58 25 63 24 4 -1 7 3 7 9 0 5 5 7 10 4 6
-3 10 -1 10 4 0 6 15 17 33 25 43 20 91 49 95 59 2 4 10 7 18 7 8 0 14 5 14
10 0 6 6 10 14 10 8 0 16 7 20 15 3 8 12 15 20 15 7 0 16 7 20 15 3 8 10 14
15 13 5 -2 18 8 30 21 12 13 21 20 21 16 0 -4 9 3 21 16 12 13 25 23 30 22 5
-2 9 2 9 8 0 14 26 39 40 39 6 0 9 3 7 8 -5 9 30 42 37 34 3 -3 6 -1 6 5 0 5
25 35 55 66 30 32 52 57 49 57 -2 0 9 13 26 30 16 16 30 32 30 36 0 4 8 13 18
21 10 9 11 12 2 7 -9 -4 -7 2 5 13 36 37 53 61 48 67 -3 3 2 8 11 12 9 3 16
12 16 20 0 8 5 14 11 14 5 0 8 4 5 9 -3 5 1 12 10 15 8 3 12 10 9 16 -3 5 -1
10 5 10 6 0 8 5 5 10 -3 6 -1 10 4 10 6 0 11 7 11 15 0 8 5 15 11 15 5 0 8 4
5 9 -3 5 1 12 10 15 9 4 14 9 11 13 -4 3 1 12 11 20 10 9 11 12 2 7 -8 -4 -4
5 9 19 14 15 21 27 18 27 -4 0 4 18 18 40 14 22 22 40 19 40 -4 0 0 8 9 18 10
10 14 22 10 25 -3 4 -1 7 5 7 7 0 11 3 10 8 -1 4 5 21 15 38 9 17 13 34 10 38
-4 3 -1 6 6 6 7 0 9 4 6 10 -3 5 -3 10 2 10 8 0 33 62 35 88 1 6 5 12 10 12 4
0 8 9 8 20 0 11 5 20 11 20 6 0 9 6 6 14 -3 8 -3 17 1 21 4 4 7 10 7 13 1 4 6
17 13 30 7 12 10 22 7 22 -3 0 1 14 10 30 9 17 13 30 10 30 -3 0 1 13 10 30 8
16 15 31 15 32 -1 2 1 10 4 18 3 8 10 35 17 60 16 60 18 67 23 88 3 9 5 17 6
17 2 0 10 36 12 57 1 10 5 18 8 18 4 0 7 6 7 13 1 12 7 41 18 87 4 14 7 32 7
40 0 8 4 20 8 25 4 6 6 18 5 28 -2 9 0 17 4 17 4 0 7 8 7 18 1 9 4 33 8 52 22
107 24 120 25 147 1 21 2 22 40 8 22 -7 42 -11 45 -8 3 4 6 1 6 -6 0 -8 7 -11
15 -7 8 3 15 0 15 -6 0 -6 3 -8 7 -5 3 4 12 2 20 -5 7 -6 16 -8 19 -5 3 3 17
-1 31 -8 15 -8 30 -12 35 -9 4 3 8 0 8 -7 0 -7 3 -9 7 -6 3 4 12 2 20 -4 7 -6
13 -8 13 -4 0 4 6 2 14 -4 7 -6 25 -12 40 -13 14 -1 26 -5 26 -9 0 -3 7 -6 15
-7 8 -1 22 -3 30 -4 8 -1 15 -6 15 -11 0 -5 7 -7 15 -3 8 3 15 1 15 -4 0 -6 3
-9 8 -9 4 1 10 0 15 -1 4 -1 12 -4 17 -5 6 -1 12 -4 15 -5 3 -1 8 -3 13 -4 28
-6 89 -31 101 -40 12 -9 13 -8 6 4 -7 12 -3 11 18 -3 14 -9 38 -18 52 -19 14
-1 25 -6 25 -11 0 -5 6 -7 14 -4 8 3 16 2 18 -3 2 -6 15 -11 31 -12 15 -1 27
-6 27 -11 0 -5 7 -7 15 -4 8 4 17 2 20 -4 4 -5 11 -7 16 -4 5 4 9 2 9 -3 0 -6
17 -13 38 -17 20 -4 42 -11 49 -17 7 -5 17 -7 23 -3 5 3 10 1 10 -6 0 -7 3 -9
7 -6 3 4 12 2 18 -3 7 -6 24 -11 39 -12 14 -1 26 -6 26 -11 0 -5 7 -7 15 -3 8
3 15 1 15 -5 0 -6 4 -8 9 -4 5 3 12 1 16 -4 3 -6 12 -8 19 -5 8 3 17 0 21 -5
3 -6 11 -9 16 -6 5 4 9 1 9 -5 0 -7 7 -10 15 -6 8 3 15 0 15 -6 0 -6 3 -8 7
-5 3 4 12 2 18 -3 7 -6 24 -11 39 -12 14 -1 26 -5 26 -9 0 -3 7 -6 15 -7 8 -1
22 -3 30 -4 8 -1 15 -6 15 -11 0 -5 7 -7 15 -3 8 3 15 1 15 -5 0 -6 4 -8 9 -4
5 3 13 0 16 -6 4 -5 13 -8 20 -5 8 3 15 1 17 -4 2 -6 15 -11 31 -12 15 -1 27
-6 27 -11 0 -5 7 -7 15 -3 8 3 15 0 15 -6 0 -6 3 -8 7 -5 3 4 12 2 20 -5 7 -6
16 -8 19 -5 3 3 17 -1 31 -8 15 -8 30 -12 35 -9 4 3 8 0 8 -7 0 -7 3 -9 7 -6
3 4 12 2 20 -4 7 -6 13 -8 13 -4 0 4 12 0 26 -10 15 -9 23 -12 19 -5 -4 7 4 4
19 -5 14 -10 26 -14 26 -10 0 4 6 2 14 -4 8 -6 18 -11 22 -9 5 1 19 -3 32 -10
12 -7 22 -10 22 -6 0 3 7 1 15 -6 8 -7 15 -9 15 -5 0 4 6 2 13 -4 8 -6 17 -8
20 -4 4 3 13 1 20 -5 8 -7 17 -9 20 -5 4 3 7 1 7 -6 0 -7 4 -9 10 -6 5 3 23
-1 40 -10 16 -8 30 -13 30 -9 0 4 6 1 13 -5 8 -6 17 -8 20 -4 4 3 7 1 7 -6 0
-7 5 -9 10 -6 6 4 17 2 24 -4 7 -6 23 -13 37 -15 13 -3 26 -5 29 -6 3 -2 8 -2
13 -1 4 0 7 -3 7 -9 0 -5 7 -7 15 -4 8 4 15 1 15 -5 0 -6 7 -8 15 -5 8 4 15 1
15 -5 0 -6 7 -8 15 -5 8 4 15 1 15 -5 0 -6 6 -8 14 -5 8 3 17 0 21 -5 3 -6 10
-9 15 -6 5 3 11 1 15 -5 3 -5 17 -10 30 -10 13 0 27 -5 30 -10 4 -6 11 -8 16
-5 5 4 9 2 9 -4 0 -6 6 -8 14 -5 8 3 17 1 21 -5 3 -6 17 -11 31 -11 13 0 24
-4 24 -10 0 -5 11 -10 24 -10 14 0 28 -5 31 -11 4 -6 13 -8 20 -5 8 3 15 1 17
-4 2 -6 15 -11 31 -12 15 -1 27 -6 27 -11 0 -5 6 -7 14 -4 7 3 19 0 25 -6 6
-6 11 -7 11 -1 0 5 4 3 8 -3 5 -7 20 -14 35 -15 15 -1 27 -6 27 -11 0 -4 4 -6
9 -2 5 3 12 1 15 -4 6 -8 73 -26 89 -23 4 1 7 -3 7 -9 0 -6 7 -9 15 -5 8 3 15
0 15 -6 0 -6 3 -8 7 -5 3 4 12 2 20 -5 7 -6 16 -8 19 -5 3 3 17 -1 31 -8 15
-8 30 -12 35 -9 4 3 8 0 8 -7 0 -7 3 -9 7 -6 3 4 12 2 19 -3 6 -6 16 -10 20
-9 5 1 23 -3 39 -10 17 -7 38 -13 48 -14 9 -1 17 -5 17 -9 0 -4 3 -7 8 -6 4 1
18 -4 31 -11 19 -11 22 -11 15 1 -6 11 -5 11 9 -1 9 -7 17 -11 17 -7 0 4 11
-1 25 -10 14 -9 25 -13 25 -9 0 4 12 0 26 -10 15 -9 23 -12 19 -5 -4 7 4 4 19
-5 14 -10 26 -14 26 -10 0 4 7 2 15 -5 9 -7 18 -10 21 -7 3 3 17 -1 31 -8 15
-8 30 -12 35 -9 4 3 8 0 8 -7 0 -7 3 -9 7 -6 3 4 12 2 20 -4 7 -6 13 -8 13 -4
0 4 12 0 26 -10 15 -9 23 -12 19 -5 -4 7 4 4 19 -5 14 -10 26 -14 26 -10 0 4
6 2 14 -4 8 -6 18 -11 22 -9 5 1 19 -3 32 -10 12 -7 22 -10 22 -6 0 3 6 2 13
-4 7 -6 24 -13 37 -15 14 -2 39 -9 55 -16 17 -7 41 -15 54 -17 14 -3 29 -8 35
-12 30 -18 122 -20 111 -2 -3 5 1 10 9 10 9 0 16 5 16 12 0 6 3 9 6 5 3 -3 15
3 27 13 11 11 24 17 28 14 4 -2 11 1 16 8 13 21 58 55 49 38 -4 -8 2 -4 13 10
11 14 21 21 21 16 0 -6 7 -1 15 10 8 10 15 15 15 9 0 -7 3 -7 8 0 15 21 56 50
48 35 -4 -8 2 -4 13 10 11 14 21 21 21 15 0 -5 5 -2 11 8 6 9 14 15 19 12 4
-3 11 2 14 11 3 8 10 13 15 10 5 -3 12 1 15 10 3 8 10 13 15 10 5 -3 12 1 15
10 4 9 9 14 12 11 4 -3 11 -2 18 3 65 53 79 63 72 50 -4 -8 2 -4 13 10 11 14
21 21 21 15 0 -5 5 -2 11 8 6 9 14 15 19 12 4 -3 11 2 14 11 3 8 10 13 15 10
5 -3 12 1 15 10 3 8 10 13 15 10 5 -3 12 1 15 10 3 8 10 13 15 10 5 -3 12 1
15 10 3 8 10 12 16 9 5 -3 10 -3 10 2 0 4 12 17 27 27 17 13 24 14 19 5 -4 -8
2 -3 13 11 11 14 21 21 21 15 0 -5 5 -2 11 8 6 9 14 15 19 12 4 -3 11 2 14 11
3 8 10 13 15 10 5 -3 12 1 15 10 3 8 10 13 15 10 5 -3 12 1 15 10 3 8 10 13
15 10 5 -3 11 1 15 9 3 8 12 15 21 15 8 0 15 5 15 11 0 5 5 7 10 4 6 -3 10 -2
10 3 0 4 18 20 40 35 23 14 38 21 35 14 -4 -7 3 -1 14 13 11 14 21 21 21 15 0
-5 5 -2 11 8 6 9 14 15 19 12 4 -3 11 2 14 11 3 8 10 13 15 10 5 -3 12 1 15
10 4 9 9 14 12 11 4 -3 18 5 32 19 15 13 35 24 45 24 10 0 15 5 12 10 -3 6 1
10 9 10 9 0 16 5 16 10 0 6 4 10 10 10 10 0 92 55 124 82 11 10 24 18 29 18 4
0 15 7 24 15 8 8 19 12 25 9 7 -4 8 -2 4 4 -4 7 -1 12 8 12 9 0 16 5 16 12 0
6 3 9 6 5 3 -3 15 3 27 14 11 10 26 19 33 19 6 0 14 7 18 15 3 8 12 15 21 15
8 0 15 5 15 10 0 6 7 10 15 10 8 0 15 5 15 10 0 6 5 10 11 10 6 0 17 7 26 15
8 8 19 12 25 9 6 -4 8 -3 5 3 -4 5 6 16 21 24 15 8 29 16 32 19 3 3 14 12 24
20 18 13 19 13 12 0 -4 -8 2 -4 13 10 11 14 21 21 21 15 0 -5 5 -2 11 8 5 9
17 17 24 17 8 0 15 5 15 10 0 6 5 10 11 10 6 0 17 7 26 15 8 8 19 12 25 9 7
-4 8 -2 4 4 -4 7 -2 12 5 12 6 0 18 8 26 18 10 11 12 12 8 2 -6 -13 -5 -13 7
0 16 20 78 63 78 56 0 -3 9 2 19 12 50 45 85 64 96 54 5 -4 5 -2 2 4 -4 6 9
19 28 30 19 10 35 22 35 27 0 4 4 6 9 3 5 -3 12 1 15 10 4 9 9 14 12 11 4 -3
13 1 21 9 8 8 19 11 25 8 7 -4 8 -2 4 4 -4 7 -2 12 3 12 6 0 19 7 28 15 10 8
21 15 25 16 4 0 21 13 39 30 17 16 37 29 45 29 8 0 14 5 14 10 0 6 7 10 15 10
8 0 15 5 15 12 0 6 3 9 6 5 5 -5 65 34 112 73 6 6 12 8 12 5 0 -3 9 4 19 14
11 11 35 27 54 36 19 9 44 25 55 35 11 11 26 21 33 22 7 2 20 10 30 18 40 34
49 41 49 35 0 -3 9 4 19 14 11 11 35 27 55 36 20 10 36 22 36 27 0 5 5 6 10 3
6 -3 10 -1 10 4 0 6 4 11 10 11 5 0 21 9 34 21 13 12 27 20 30 20 4 -1 13 4
21 11 33 30 45 38 55 38 5 0 10 5 10 12 0 6 3 9 6 6 3 -3 17 5 31 18 14 13 29
21 34 18 5 -3 9 0 9 5 0 6 6 11 14 11 8 0 17 7 20 16 4 9 9 14 12 11 3 -3 16
4 29 15 13 11 25 19 27 17 1 -1 16 9 32 24 16 15 35 27 42 27 8 0 14 5 14 10
0 6 7 10 15 10 8 0 15 5 15 11 0 5 5 7 10 4 6 -3 13 1 16 9 3 9 12 16 20 16 8
0 14 5 14 12 0 6 3 9 6 5 3 -3 16 4 29 15 13 11 26 19 29 19 4 -1 19 10 34 24
15 14 32 25 39 25 7 0 13 5 13 10 0 6 6 10 13 10 7 0 22 8 33 18 22 20 96 68
107 70 4 1 19 13 34 26 15 14 30 23 35 20 4 -3 11 2 14 10 3 9 12 16 20 16 8
0 14 5 14 12 0 6 3 9 6 6 3 -3 17 5 31 18 14 13 29 21 34 18 5 -3 9 -1 9 4 0
5 16 17 35 28 19 10 35 22 35 26 0 5 7 8 15 8 8 0 15 5 15 12 0 6 3 9 6 5 3
-3 16 4 29 15 13 11 27 21 31 22 5 0 19 11 33 24 13 12 26 20 28 18 3 -2 15 5
28 16 13 11 26 19 29 19 4 -1 18 10 33 23 15 14 30 23 35 20 4 -3 11 2 14 10
3 9 10 16 15 16 6 0 15 4 22 10 57 47 76 60 86 60 6 0 11 5 11 11 0 5 4 8 9 4
6 -3 14 3 20 12 6 10 11 14 11 10 0 -5 7 -1 16 7 8 9 20 13 26 10 6 -4 8 -2 4
4 -6 10 24 26 50 27 6 0 39 26 74 58 35 31 68 57 73 57 6 0 20 9 31 19 12 11
28 21 36 23 8 2 23 12 33 22 9 10 17 16 17 12 0 -4 7 0 16 8 8 9 20 13 26 10
7 -4 8 -2 4 4 -4 7 -1 12 8 12 9 0 16 5 16 10 0 6 5 10 10 10 6 0 19 9 30 20
12 12 24 19 29 16 4 -3 14 4 21 15 8 10 18 19 23 19 14 0 42 32 42 49 0 9 -6
26 -13 38 -15 24 -15 24 81 76 l49 27 36 -30 c182 -146 660 -144 967 5 93 45
159 98 176 144 18 47 -9 200 -51 281 -29 56 -109 124 -176 150 -120 45 -349
38 -494 -17 -160 -60 -327 -202 -440 -376 -60 -92 -67 -100 -132 -132 -37 -19
-68 -32 -68 -29 0 3 20 40 45 83 101 175 174 385 244 703 6 25 26 73 44 105
19 32 62 112 97 178 96 184 74 167 247 194 559 86 969 217 1081 345 42 49 48
89 23 161 -88 251 -394 423 -667 376 -155 -27 -291 -105 -430 -245 -103 -104
-163 -198 -208 -326 -25 -72 -30 -103 -33 -204 l-3 -119 -50 -91 c-53 -98 -57
-95 -41 24 5 36 12 94 16 130 3 36 8 81 10 100 2 19 7 64 10 100 3 36 8 81 10
100 2 19 7 64 10 100 4 36 8 76 10 90 2 14 6 52 10 85 19 185 26 204 68 205
10 0 53 7 95 16 233 47 436 158 563 307 330 388 395 976 128 1160 -76 52 -159
79 -251 82 -212 8 -401 -111 -562 -355 -249 -376 -294 -789 -121 -1131 l33
-66 -18 -124 c-10 -68 -21 -160 -25 -204 -3 -44 -8 -91 -10 -105 -2 -14 -6
-56 -9 -95 -11 -116 -23 -235 -36 -350 -5 -49 -10 -98 -10 -107 0 -33 -15 -18
-35 35 -18 47 -19 59 -8 132 32 214 -5 434 -98 592 -79 134 -235 256 -382 298
-135 39 -305 13 -423 -63 -56 -37 -164 -138 -164 -154 0 -5 -5 -8 -11 -8 -8 0
-9 23 -5 78 37 432 93 751 193 1091 l36 123 36 -8 c80 -17 190 -1 417 62 162
44 290 92 461 174 78 37 144 65 147 62 3 -3 6 0 6 6 0 7 17 20 38 30 20 9 42
21 47 25 18 14 217 147 221 147 1 0 20 16 41 35 21 20 47 38 59 41 11 3 21 11
21 18 0 11 -82 -41 -135 -85 -27 -22 -235 -149 -256 -155 -11 -4 -23 -10 -26
-15 -11 -16 -256 -127 -385 -174 -215 -78 -571 -160 -618 -142 -31 12 -17 34
31 50 131 44 416 178 567 267 50 29 96 53 103 53 6 0 12 4 12 8 0 4 35 30 78
57 95 62 183 123 200 140 8 7 18 9 24 6 6 -4 8 -3 5 3 -6 9 43 53 60 53 12 1
45 50 33 50 -5 0 -10 -4 -10 -9 0 -4 -19 -21 -42 -37 -24 -16 -45 -32 -48 -35
-23 -26 -330 -223 -330 -212 0 5 -4 3 -8 -3 -14 -20 -232 -139 -232 -127 0 5
-4 3 -8 -3 -16 -24 -390 -184 -430 -184 -12 0 -22 6 -22 13 0 14 100 114 190
191 30 25 62 52 70 59 52 45 98 76 104 70 3 -3 6 -2 6 4 0 6 69 65 153 132
193 153 202 160 360 315 73 71 135 129 140 128 4 -1 7 3 7 10 0 7 24 37 53 67
28 30 45 50 36 43 -8 -6 -80 -77 -160 -157 -113 -115 -308 -288 -384 -343 -5
-4 -25 -19 -43 -35 -19 -15 -39 -24 -44 -21 -6 4 -8 3 -5 -3 6 -10 -44 -53
-62 -53 -5 0 -11 -4 -13 -9 -5 -13 -296 -240 -302 -235 -3 2 -4 1 -1 -2 5 -8
-39 -44 -54 -44 -22 0 -10 41 49 177 57 129 184 382 199 393 3 3 15 23 26 45
11 22 27 47 35 56 8 8 16 21 18 28 3 15 134 212 154 232 8 8 29 36 48 63 45
66 182 230 270 323 60 63 76 74 97 70 29 -5 63 22 63 52 0 29 -37 68 -76 81
-32 11 -38 10 -57 -9 -19 -19 -20 -24 -8 -57 l13 -36 -79 -81 c-43 -45 -80
-84 -83 -87 -21 -20 -208 -261 -254 -327 -32 -46 -61 -83 -65 -83 -4 0 -8 -6
-8 -12 0 -7 -21 -45 -47 -85 -52 -80 -191 -331 -201 -363 -4 -11 -11 -17 -17
-14 -6 4 -8 2 -4 -4 9 -15 -55 -142 -72 -142 -11 0 -13 9 -8 43 17 107 124
428 192 575 19 40 34 75 34 77 0 1 31 62 70 135 83 157 175 299 279 433 74 94
77 97 116 97 76 0 89 54 27 112 -33 30 -41 33 -69 26 -40 -10 -50 -39 -27 -77
20 -33 25 -22 -62 -134 -28 -37 -54 -64 -58 -62 -3 3 -4 2 -2 -1 3 -3 -24 -47
-58 -97 -35 -51 -94 -146 -131 -212 -37 -66 -72 -123 -77 -126 -5 -3 -9 -10
-9 -15 0 -5 -27 -74 -60 -153 -110 -259 -187 -520 -225 -763 -15 -98 -21 -118
-35 -118 -24 0 -32 83 -26 285 8 286 91 665 215 980 79 203 148 330 264 488
l50 68 46 -3 c40 -3 48 0 58 21 17 33 -5 76 -50 98 -56 26 -112 -5 -85 -48 16
-26 9 -45 -32 -89 -168 -185 -354 -616 -444 -1033 -50 -232 -60 -320 -60 -540
0 -162 -3 -207 -13 -207 -13 0 -33 40 -25 53 2 4 0 7 -6 7 -14 0 -66 165 -91
291 -30 146 -38 330 -17 395 27 82 30 123 16 182 -11 48 -11 69 5 161 23 137
65 301 122 476 41 126 49 143 80 164 46 32 124 113 151 159 71 116 -35 290
-215 353 -173 61 -489 1 -687 -131 -130 -87 -260 -247 -320 -395 -19 -47 -45
-86 -77 -120 -27 -27 -59 -64 -71 -82 -12 -18 -25 -33 -29 -33 -12 0 70 220
276 748 70 177 145 378 167 445 45 133 57 149 190 253 91 70 99 72 154 34 63
-43 184 -86 281 -99 280 -39 648 90 755 264 26 41 24 82 -6 142 -96 191 -352
254 -689 169 -205 -52 -338 -148 -407 -291 -16 -33 -29 -65 -29 -71 0 -5 -15
-21 -32 -34 -18 -13 -52 -42 -76 -64 -23 -21 -44 -37 -47 -34 -2 2 9 51 25
109 29 106 64 268 75 349 3 25 8 56 10 70 2 14 7 47 10 75 3 27 12 53 20 57
40 23 129 105 174 162 157 196 203 443 137 729 -52 225 -124 377 -238 498
-147 157 -353 193 -509 90 -60 -40 -103 -102 -135 -197 -60 -176 -38 -503 48
-724 60 -153 154 -285 321 -453 70 -71 125 -132 123 -135 -2 -4 -7 -32 -10
-62 -13 -113 -113 -540 -130 -557 -2 -2 -6 24 -9 57 -4 33 -18 91 -31 128
-134 373 -167 447 -248 556 -51 68 -106 112 -181 146 -55 25 -163 26 -233 2
-117 -41 -250 -145 -294 -232 -90 -176 96 -372 446 -470 109 -31 301 -39 364
-15 83 30 77 32 104 -29 14 -31 34 -89 46 -130 l20 -73 -49 -139 c-68 -194
-94 -262 -214 -564 -57 -146 -113 -287 -123 -315 l-18 -49 -10 34 c-5 19 -19
67 -30 105 -19 61 -20 76 -10 122 46 202 -54 494 -227 663 -174 171 -404 169
-587 -3 -72 -69 -92 -110 -92 -192 0 -266 264 -496 620 -541 30 -4 62 -8 70
-10 8 -1 43 -3 77 -3 55 -1 64 -4 79 -26 21 -32 82 -207 78 -225 -1 -8 -28
-87 -58 -176 -121 -352 -208 -742 -241 -1089 -4 -38 -9 -72 -11 -74 -2 -2 -18
0 -36 5 l-33 10 -11 117 c-27 272 -104 451 -254 590 -74 69 -171 122 -253 138
-29 6 -65 15 -82 20 -27 9 -41 13 -85 24 -8 2 -16 4 -17 5 -2 2 -7 4 -13 5 -5
1 -11 3 -12 5 -2 1 -12 3 -22 5 -11 2 -31 7 -45 11 -14 4 -29 7 -33 6 -5 -1
-8 2 -8 6 0 4 -8 8 -17 9 -26 2 -46 7 -60 16 -7 5 -13 6 -13 2 0 -3 -15 1 -32
8 -18 8 -37 13 -43 13 -5 -1 -11 13 -13 31 -4 40 -26 58 -69 58 -32 0 -36 4
-48 40 -18 51 -33 111 -52 205 -19 89 -25 405 -11 495 6 33 10 75 9 93 0 17 4
32 8 32 5 0 16 28 25 63 42 174 92 298 122 304 10 2 28 6 39 8 44 7 63 18 69
37 9 37 -14 55 -69 53 -27 -1 -61 2 -75 6 -14 5 -43 11 -65 13 -22 2 -40 5
-40 6 0 1 -11 3 -25 6 -14 2 -41 7 -60 10 -19 4 -42 8 -50 10 -8 2 -31 6 -50
10 -19 3 -48 8 -65 11 -48 7 -68 11 -95 17 -14 3 -38 8 -55 11 -16 3 -54 10
-82 15 -29 6 -78 14 -109 20 -31 5 -63 11 -72 14 -10 3 -35 7 -57 11 -22 3
-85 14 -140 25 -106 20 -152 28 -200 36 -86 15 -138 24 -144 28 -3 2 -28 7
-56 10 -71 10 -105 16 -145 26 -32 8 -84 17 -150 26 -14 1 -36 6 -50 9 -14 3
-49 10 -77 15 -29 6 -77 14 -105 20 -29 5 -62 11 -73 13 -22 5 -114 20 -130
22 -5 1 -35 7 -65 13 -30 6 -71 14 -90 17 -48 8 -140 24 -170 30 -14 3 -38 8
-55 10 -16 3 -43 7 -58 9 -16 2 -31 7 -34 10 -3 2 6 49 20 103 14 54 29 126
33 160 4 43 10 60 19 57 7 -3 26 7 43 21 22 19 33 38 37 69 l7 43 316 183
c1363 791 1751 997 2097 1112 135 46 268 61 315 36 60 -32 80 -145 35 -204
-33 -44 -74 -52 -125 -25 -42 22 -65 20 -74 -6 -14 -35 59 -83 124 -83 111 0
191 102 176 224 -28 206 -220 233 -601 83 -194 -77 -551 -253 -785 -387 -36
-21 -159 -91 -275 -155 -227 -127 -265 -150 -843 -485 -357 -207 -384 -221
-401 -206 -10 9 -25 16 -34 16 -9 0 -17 6 -17 13 0 40 -22 187 -35 245 -81
334 -264 579 -490 657 -67 24 -194 31 -263 15 -237 -53 -439 -269 -550 -590
-37 -105 -69 -249 -71 -318 -1 -14 -10 -26 -23 -31 -28 -11 -47 -32 -83 -94
-32 -56 -56 -72 -85 -57 -11 6 -59 70 -107 143 -95 143 -98 147 -161 218 -160
178 -365 191 -542 32 -48 -43 -78 -81 -206 -261 -49 -69 -69 -67 -105 8 -20
42 -28 77 -32 145 -4 50 -9 104 -12 120 -39 215 -94 360 -187 498 -22 32 -38
60 -36 62 1 1 44 24 93 50 50 26 113 60 140 75 131 72 169 92 290 155 72 37
175 91 230 120 193 102 587 295 601 295 2 0 27 11 56 24 235 105 448 168 575
169 94 1 125 -13 155 -74 41 -79 9 -171 -68 -198 -38 -13 -44 -13 -83 7 -51
27 -67 27 -80 4 -15 -27 10 -57 64 -77 152 -59 300 87 256 251 -71 263 -418
208 -1236 -196 -132 -66 -289 -145 -350 -178 -60 -32 -164 -87 -230 -122 -66
-34 -142 -75 -170 -90 -27 -15 -99 -53 -160 -85 -60 -32 -115 -62 -121 -67 -8
-6 -36 9 -80 43 -83 63 -148 94 -234 112 -168 34 -329 -19 -477 -157 -153
-142 -221 -270 -319 -595 -4 -11 -10 -9 -27 8 -46 43 -105 15 -124 -59 -11
-41 1 -107 23 -131 21 -23 60 -29 82 -13 18 12 18 7 17 -109 -3 -166 24 -338
73 -480 21 -62 42 -119 46 -128 4 -10 2 -16 -6 -16 -22 0 -126 -17 -183 -30
-16 -4 -33 -6 -36 -5 -3 0 -55 -8 -115 -19 -60 -11 -125 -22 -144 -24 -19 -3
-46 -7 -60 -10 -14 -3 -41 -8 -60 -11 -19 -3 -48 -8 -65 -11 -16 -3 -39 -7
-50 -9 -61 -10 -193 -34 -215 -38 -14 -3 -45 -9 -70 -12 l-46 -6 -27 119 c-15
66 -46 180 -68 253 -37 122 -39 135 -24 146 9 7 16 15 15 18 0 4 15 34 33 69
62 112 121 296 153 472 13 73 17 150 17 285 0 286 -31 452 -167 915 -2 6 -7
21 -13 35 -5 14 -27 74 -48 134 -34 96 -37 112 -26 141 14 40 8 59 -25 74 -35
16 -76 14 -102 -5z m3301 -1560 c56 -16 136 -84 201 -169 19 -24 36 -42 38
-39 3 2 5 -2 5 -8 0 -23 144 -227 181 -258 22 -18 48 -30 65 -30 49 0 103 38
132 92 15 27 30 47 33 44 3 -3 7 -56 9 -117 3 -101 1 -110 -15 -105 -17 5 -67
14 -127 21 -16 2 -41 6 -55 8 -110 20 -154 23 -210 12 -36 -6 -56 -9 -125 -20
-22 -3 -53 -9 -70 -14 -16 -4 -40 -7 -52 -6 -13 1 -23 -1 -23 -5 0 -3 -8 -6
-17 -6 -10 0 -36 -4 -58 -7 -22 -4 -56 -9 -75 -12 -19 -3 -46 -8 -60 -12 -14
-3 -38 -7 -55 -8 -16 -2 -43 -6 -60 -9 -16 -4 -50 -9 -75 -13 -51 -6 -75 -11
-75 -13 0 -2 -11 -3 -85 -14 -25 -3 -56 -8 -70 -11 -94 -20 -104 -17 -90 21
11 27 14 43 35 154 8 41 14 90 15 108 0 35 6 38 34 17 11 -8 37 -15 58 -15 30
0 47 8 78 36 22 20 39 39 36 41 -2 3 3 13 12 23 36 40 43 51 37 60 -3 6 -2 10
3 10 5 0 24 21 42 47 118 164 256 235 383 197z m7167 -2472 c0 -5 -11 -42 -25
-83 -33 -93 -99 -351 -116 -446 -13 -76 -23 -89 -38 -50 -9 22 -95 112 -109
112 -4 1 -16 6 -27 12 -55 30 -177 33 -300 8 -113 -24 -267 -74 -283 -94 -7
-9 -11 -10 -7 -3 17 33 -137 -76 -193 -137 -42 -45 -92 -116 -92 -130 0 -6 -3
-11 -8 -11 -7 0 -12 -10 -51 -105 -32 -78 -55 -182 -67 -299 -2 -28 -6 -51 -8
-53 -1 -2 -17 0 -34 3 -27 6 -30 9 -27 38 2 17 7 56 9 87 20 205 96 587 157
784 17 56 30 74 117 164 54 56 97 104 95 106 -2 3 0 3 4 0 3 -3 15 3 25 12 16
14 22 15 40 4 32 -20 96 -41 178 -60 103 -23 292 -19 390 9 16 5 30 7 30 5 0
-8 193 66 256 98 74 38 84 42 84 29z m-150 -1297 c28 -143 102 -350 154 -433
14 -23 23 -42 19 -42 -4 0 1 -6 12 -13 21 -16 21 -15 -29 -186 -104 -355 -186
-867 -186 -1167 0 -66 -3 -83 -16 -88 -9 -3 -19 -4 -24 -1 -4 2 -29 7 -56 11
-27 3 -62 8 -79 10 -16 2 -50 6 -75 9 -25 3 -58 7 -75 10 -16 2 -52 7 -80 10
-27 3 -66 8 -85 11 -19 3 -51 7 -70 10 -107 13 -111 15 -86 39 23 23 20 54 -6
75 -17 13 -28 15 -40 9 -10 -5 -18 -6 -18 -2 0 4 -5 0 -11 -10 -6 -9 -14 -15
-18 -12 -5 2 -16 -4 -26 -15 -10 -11 -22 -17 -26 -14 -5 3 -9 0 -9 -6 0 -6 -4
-9 -9 -6 -5 3 -11 0 -14 -7 -7 -19 -118 -17 -127 3 -4 8 -12 25 -18 37 -7 13
-12 34 -12 47 0 17 -7 26 -26 30 -21 6 -25 11 -20 31 5 21 -7 186 -19 262 -5
27 -2 32 17 35 13 2 61 -5 108 -14 195 -40 384 -9 558 93 77 45 218 189 265
269 78 135 101 283 57 370 -54 106 -150 184 -264 215 -112 30 -258 8 -379 -57
-49 -26 -169 -116 -180 -135 -4 -7 -19 -12 -33 -11 -20 2 -24 6 -19 23 32 112
39 151 38 235 0 85 -5 120 -39 239 -5 17 -4 22 4 17 14 -9 197 -9 262 -1 237
31 450 150 605 339 l40 49 11 -105 c7 -57 17 -131 24 -163z m-11953 -1963 c1
-15 4 -43 7 -62 7 -45 -1 -70 -23 -70 -10 0 -21 -3 -25 -7 -4 -5 -11 -8 -14
-9 -4 0 -14 -4 -22 -7 -52 -22 -77 -30 -87 -28 -7 1 -13 -3 -13 -9 0 -6 -4 -9
-9 -5 -5 3 -12 1 -16 -5 -4 -6 -11 -8 -16 -5 -5 4 -9 1 -9 -4 0 -6 -3 -10 -7
-9 -5 0 -17 -2 -28 -6 -11 -5 -45 -17 -75 -29 -30 -11 -59 -24 -64 -28 -5 -4
-15 -5 -22 -2 -8 3 -14 -1 -14 -8 0 -7 -3 -9 -7 -6 -3 4 -12 2 -19 -4 -7 -5
-25 -12 -40 -15 -16 -3 -32 -10 -35 -16 -4 -6 -12 -7 -18 -4 -6 4 -11 2 -11
-4 0 -6 -4 -8 -10 -5 -5 3 -10 2 -10 -3 0 -5 -7 -9 -15 -10 -8 -1 -22 -3 -30
-4 -8 -1 -15 -5 -15 -10 0 -5 -4 -6 -10 -3 -5 3 -10 2 -10 -2 0 -5 -11 -10
-24 -11 -24 -2 -24 -1 -10 44 7 25 28 80 46 122 l33 76 100 17 c184 31 369 88
470 145 45 25 49 24 52 -14z m12568 -687 c44 -9 98 -18 120 -20 22 -3 51 -7
65 -10 21 -4 93 -11 205 -19 11 -1 25 -5 31 -9 11 -6 41 -101 50 -156 3 -14 6
-31 9 -38 5 -15 -16 -151 -35 -223 -5 -19 -11 -46 -14 -60 -34 -182 -133 -435
-243 -620 -39 -65 -100 -136 -109 -127 -2 1 -6 17 -9 35 -3 18 -12 53 -21 79
-17 50 -16 68 14 176 11 39 9 193 -3 247 -21 90 -69 183 -163 310 -7 10 -13
33 -12 52 6 212 9 280 14 321 5 37 4 49 -9 53 -25 10 -18 35 8 29 12 -2 58
-12 102 -20z m-14180 -2659 c56 -9 73 -13 125 -31 44 -15 166 -73 185 -88 6
-4 39 -26 75 -48 36 -23 67 -45 68 -50 2 -5 9 -9 16 -9 7 0 12 -10 13 -22 1
-34 12 -143 14 -143 0 0 2 -13 4 -30 2 -30 14 -128 20 -175 2 -14 4 -25 5 -25
2 0 4 -11 5 -25 2 -14 5 -41 8 -60 3 -19 9 -53 12 -75 8 -49 12 -72 20 -105 3
-14 8 -34 10 -45 2 -11 7 -33 10 -50 4 -16 8 -39 10 -50 2 -11 8 -37 13 -57 6
-21 8 -38 5 -38 -3 0 0 -7 7 -15 7 -9 10 -18 7 -22 -4 -3 -2 -12 4 -20 6 -7 8
-13 5 -13 -4 0 -2 -8 3 -18 6 -11 12 -31 15 -46 5 -27 22 -87 33 -116 4 -8 5
-21 4 -27 -1 -7 3 -13 9 -13 6 0 9 -4 5 -9 -3 -5 0 -13 6 -16 5 -4 8 -13 5
-21 -3 -7 -1 -16 5 -19 5 -4 7 -11 4 -16 -4 -5 -1 -9 5 -9 6 0 9 -3 7 -7 -3
-5 0 -19 6 -33 5 -14 11 -29 13 -35 1 -5 12 -35 24 -65 12 -30 27 -70 33 -87
6 -18 14 -33 19 -33 5 0 7 -4 3 -9 -3 -5 -1 -12 5 -16 6 -4 8 -11 5 -16 -4 -5
-1 -9 4 -9 6 0 11 -3 10 -7 -2 -17 14 -53 24 -53 6 0 8 -3 5 -6 -3 -3 7 -31
23 -62 l29 -57 -33 -6 c-40 -7 -382 -3 -422 5 -16 4 -52 11 -78 16 -27 6 -53
8 -58 4 -5 -3 -9 -1 -9 3 0 5 -26 14 -57 22 -131 30 -360 150 -444 232 -16 16
-34 29 -39 29 -6 0 -10 3 -10 8 -1 4 -23 32 -51 62 -28 30 -74 91 -102 135
-29 44 -58 89 -65 100 -7 11 -15 28 -18 38 -4 9 -11 17 -16 17 -5 0 -6 5 -3
10 4 6 2 16 -3 23 -35 45 -104 291 -122 437 -11 92 -14 239 -6 290 3 14 7 47
11 73 7 58 45 179 72 228 58 108 125 176 219 225 102 54 178 67 289 50z"/>
<path d="M4823 15170 c-54 -33 -70 -91 -34 -124 17 -15 24 -16 54 -5 27 9 37
21 50 57 16 41 16 47 2 69 -19 28 -31 29 -72 3z"/>
<path d="M4529 14901 c-42 -42 -48 -64 -23 -99 18 -25 46 -29 64 -7 7 8 19 15
26 15 8 0 14 9 14 19 0 11 5 23 10 26 27 17 -4 85 -39 85 -8 0 -31 -17 -52
-39z"/>
<path d="M4710 14702 c0 -4 10 -13 23 -21 22 -14 22 -14 3 8 -20 22 -26 25
-26 13z"/>
<path d="M4440 14664 c-8 -3 -25 -20 -38 -38 -29 -43 -26 -86 7 -102 34 -17
74 9 94 62 13 37 14 44 1 63 -14 20 -31 24 -64 15z"/>
<path d="M4850 14575 c13 -14 26 -25 28 -25 3 0 -5 11 -18 25 -13 14 -26 25
-28 25 -3 0 5 -11 18 -25z"/>
<path d="M4930 14510 c6 -11 13 -20 16 -20 2 0 0 9 -6 20 -6 11 -13 20 -16 20
-2 0 0 -9 6 -20z"/>
<path d="M4980 14474 c0 -6 9 -19 19 -28 14 -13 21 -14 27 -5 4 7 3 10 -4 5
-6 -3 -18 4 -26 16 -9 12 -16 18 -16 12z"/>
<path d="M13412 14363 c-5 -73 -61 -251 -89 -284 -7 -8 -13 -20 -13 -26 0 -21
-88 -100 -122 -109 l-33 -10 45 -31 c59 -42 130 -112 130 -129 0 -3 9 -19 21
-35 11 -16 17 -29 13 -29 -4 0 1 -7 12 -16 10 -8 12 -12 4 -8 -12 6 -13 5 -5
-7 15 -20 33 -77 41 -134 5 -27 9 -53 10 -57 1 -5 3 -20 4 -35 2 -24 3 -22 10
12 4 22 11 57 14 79 3 21 18 70 31 110 14 39 27 76 28 81 1 6 12 26 23 45 11
19 20 37 20 40 -1 6 58 65 90 90 19 16 28 20 42 20 7 1 -18 17 -30 20 -4 0
-21 14 -39 31 -17 16 -35 29 -40 29 -5 0 -9 5 -9 11 0 7 -10 21 -23 33 -29 27
-87 145 -103 211 -13 53 -14 59 -16 93 -2 45 -13 49 -16 5z"/>
<path d="M4645 14380 c3 -5 8 -10 11 -10 2 0 4 5 4 10 0 6 -5 10 -11 10 -5 0
-7 -4 -4 -10z"/>
<path d="M4690 14357 c0 -2 6 -10 14 -16 11 -9 16 -9 22 1 4 7 4 10 -1 6 -4
-4 -14 -3 -22 3 -7 6 -13 9 -13 6z"/>
<path d="M5179 12639 c-1 -50 -7 -77 -29 -125 -10 -24 -16 -44 -12 -44 3 0
-15 -20 -41 -45 -27 -25 -56 -45 -65 -45 -10 0 -3 -7 16 -17 48 -23 122 -125
122 -168 0 -8 5 -15 11 -15 5 0 8 -4 4 -10 -3 -5 -3 -21 1 -36 7 -29 19 -18
28 27 2 13 9 36 15 52 6 15 7 27 3 27 -4 0 -2 4 3 8 6 4 19 24 30 45 11 20 23
37 28 37 4 0 6 4 3 8 -2 4 9 14 25 21 28 12 40 31 19 31 -6 0 -27 15 -46 33
-51 46 -85 117 -100 207 -8 47 -14 51 -15 9z"/>
<path d="M5191 12084 c0 -11 3 -14 6 -6 3 7 2 16 -1 19 -3 4 -6 -2 -5 -13z"/>
<path d="M18857 12033 c-3 -10 -11 -46 -17 -80 -7 -35 -17 -63 -21 -63 -5 0
-9 -8 -9 -18 0 -25 -58 -92 -94 -108 -17 -7 -25 -13 -18 -14 23 0 103 -83 124
-129 24 -50 26 -57 35 -114 3 -21 10 -40 16 -44 6 -4 8 2 5 15 -4 12 -2 22 2
22 5 0 7 8 5 18 -1 9 2 22 7 29 5 7 7 17 3 23 -3 5 -1 10 4 10 6 0 11 7 11 15
0 19 52 118 65 125 6 3 9 8 8 13 -2 4 0 6 5 6 37 -6 44 24 10 42 -60 32 -132
166 -130 242 1 31 -4 35 -11 10z"/>
<path d="M18022 11488 c-15 -15 -15 -38 0 -86 9 -31 19 -41 47 -50 33 -11 38
-9 59 14 28 32 23 58 -24 102 -35 34 -62 40 -82 20z"/>
<path d="M17980 11305 c-11 -13 -10 -14 4 -9 9 3 16 10 16 15 0 13 -6 11 -20
-6z"/>
<path d="M17897 11212 c-25 -25 -32 -39 -22 -39 8 0 13 3 10 6 -3 2 9 20 27
38 17 18 30 33 27 33 -3 0 -22 -17 -42 -38z"/>
<path d="M18296 11228 c-12 -19 -13 -31 -4 -63 9 -34 18 -44 51 -58 38 -16 42
-16 59 0 29 26 23 68 -17 108 -41 40 -68 44 -89 13z"/>
<path d="M18179 11003 c-13 -17 -13 -17 6 -3 11 8 22 16 24 17 2 2 0 3 -6 3
-6 0 -17 -8 -24 -17z"/>
<path d="M18410 10959 c-9 -16 -9 -32 1 -64 10 -33 19 -45 44 -54 44 -16 52
-14 71 14 14 21 14 30 4 55 -26 62 -98 92 -120 49z"/>
<path d="M18135 10959 c-4 -6 -5 -12 -2 -15 2 -3 7 2 10 11 7 17 1 20 -8 4z"/>
<path d="M18018 10858 c-15 -15 -23 -28 -19 -28 9 0 56 49 50 53 -2 1 -16 -10
-31 -25z"/>
<path d="M17954 10798 l-19 -23 23 19 c21 18 27 26 19 26 -2 0 -12 -10 -23
-22z"/>
<path d="M17894 10748 l-19 -23 23 19 c12 11 22 21 22 23 0 8 -8 2 -26 -19z"/>
<path d="M18194 10648 l-19 -23 23 19 c12 11 22 21 22 23 0 8 -8 2 -26 -19z"/>
<path d="M1619 10119 c-2 -78 -38 -217 -77 -298 -37 -76 -131 -170 -165 -165
-27 4 -20 -10 13 -24 17 -8 47 -30 68 -50 20 -20 42 -37 47 -37 6 0 10 -5 10
-12 0 -7 8 -21 17 -33 10 -11 15 -20 11 -20 -3 0 1 -8 9 -17 33 -39 63 -137
78 -258 4 -33 8 -55 9 -50 1 6 5 19 7 30 3 11 6 34 8 50 2 17 6 37 9 45 4 8 8
26 11 40 5 29 13 53 31 95 8 17 15 37 17 45 2 8 6 17 10 20 3 3 8 12 10 20 2
8 11 23 20 34 10 10 15 23 12 28 -3 4 2 8 10 8 9 0 16 6 16 13 1 14 36 41 68
51 12 4 22 10 22 14 -1 11 -84 67 -95 63 -5 -1 -7 0 -4 4 4 3 -8 23 -27 43
-19 20 -34 43 -34 50 0 6 -4 12 -8 12 -9 0 -42 72 -63 135 -17 52 -18 59 -25
130 -7 69 -14 84 -15 34z"/>
<path d="M4220 2696 c0 -2 8 -10 18 -17 15 -13 16 -12 3 4 -13 16 -21 21 -21
13z"/>
</g>
</svg>
