<?xml version="1.0" standalone="no"?>
<!DOCTYPE svg PUBLIC "-//W3C//DTD SVG 20010904//EN"
 "http://www.w3.org/TR/2001/REC-SVG-20010904/DTD/svg10.dtd">
<svg version="1.0" xmlns="http://www.w3.org/2000/svg"
 width="200.000000pt" height="200.000000pt" viewBox="0 0 200.000000 200.000000"
 preserveAspectRatio="xMidYMid meet">
<metadata>
Created by potrace 1.14, written by Peter Selinger 2001-2017
</metadata>
<g transform="translate(0.000000,200.000000) scale(0.100000,-0.100000)"
fill="#000000" stroke="none">
<path d="M0 1000 l0 -1000 1000 0 1000 0 0 1000 0 1000 -1000 0 -1000 0 0
-1000z m1452 493 c10 -9 18 -21 18 -26 0 -6 -6 -3 -13 7 -7 10 -29 21 -47 26
-34 8 -34 8 -6 9 16 1 38 -6 48 -16z m-91 -20 c-8 -15 -10 -15 -11 -2 0 17 10
32 18 25 2 -3 -1 -13 -7 -23z m36 -70 c-8 -7 -35 9 -41 23 -4 11 0 11 20 -2
13 -9 23 -18 21 -21z m53 3 c0 -2 -9 -6 -20 -9 -11 -3 -20 -1 -20 4 0 5 9 9
20 9 11 0 20 -2 20 -4z m-366 -407 c14 -11 26 -29 26 -39 0 -10 9 -20 20 -23
24 -6 40 -45 40 -97 0 -21 5 -42 10 -45 13 -8 13 -105 -1 -105 -6 0 -9 -19 -7
-47 2 -39 7 -49 23 -52 11 -2 29 -10 40 -17 18 -13 15 -14 -32 -14 -45 0 -51
2 -46 17 5 13 3 15 -13 8 -10 -4 -30 -10 -44 -12 -20 -4 -22 -2 -10 6 12 8 6
11 -25 10 -31 0 -36 -2 -20 -9 14 -6 4 -9 -38 -9 -32 -1 -56 3 -53 7 3 4 -11
9 -30 9 -19 1 -34 -3 -34 -8 0 -8 27 -14 95 -22 17 -2 5 -5 -25 -6 l-55 -2 50
-21 c46 -19 63 -20 214 -14 128 4 169 2 190 -8 22 -12 31 -12 59 -1 17 8 32
18 32 24 0 10 -76 58 -178 111 -34 18 -60 35 -58 38 9 8 210 -99 239 -128 26
-25 27 -28 12 -43 -43 -43 -215 -53 -398 -23 -78 13 -112 26 -222 82 -71 37
-139 73 -150 82 l-20 14 20 -8 c11 -4 51 -10 88 -12 46 -2 67 -7 64 -15 -2 -7
-13 -13 -25 -15 -26 -4 -20 -22 7 -22 10 0 24 15 34 35 9 19 23 35 32 35 8 0
15 6 15 13 0 7 -13 12 -32 12 -42 0 -47 26 -18 92 19 43 23 46 34 31 12 -16
13 -15 14 10 1 52 14 93 35 107 12 8 16 15 9 15 -20 0 -14 29 13 55 30 31 82
33 119 4z m-284 -297 c3 -2 -39 -2 -93 0 -88 4 -95 3 -71 -10 14 -7 24 -16 21
-18 -6 -6 -87 33 -87 41 0 7 223 -6 230 -13z"/>
<path d="M860 763 c0 -6 8 -17 18 -24 16 -13 16 -13 2 6 -8 11 -16 22 -17 24
-2 2 -3 0 -3 -6z"/>
<path d="M866 705 c4 -8 10 -12 15 -9 11 6 2 24 -11 24 -5 0 -7 -7 -4 -15z"/>
<path d="M942 630 c0 -14 2 -19 5 -12 2 6 2 18 0 25 -3 6 -5 1 -5 -13z"/>
</g>
</svg>
