<!-- Generator: Adobe Illustrator 19.0.0, SVG Export Plug-In . SVG Version: 6.00 Build 0)  -->
<svg xmlns="http://www.w3.org/2000/svg"
    xmlns:xlink="http://www.w3.org/1999/xlink" version="1.1" preserveAspectRatio="xMidYMid meet" viewBox="0 0 8 8" encoding="UTF-8">
    <path class="close-stroke" d="M7.3,8C7.1,8,6.9,7.9,6.8,7.8L0.2,1.2c-0.3-0.3-0.3-0.7,0-1c0.3-0.3,0.7-0.3,1,0l6.5,6.5c0.3,0.3,0.3,0.7,0,1
	C7.6,7.9,7.5,8,7.3,8z" />
    <path class="close-stroke" d="M0.7,8C0.5,8,0.4,7.9,0.2,7.8c-0.3-0.3-0.3-0.7,0-1l6.5-6.5c0.3-0.3,0.7-0.3,1,0c0.3,0.3,0.3,0.7,0,1L1.2,7.8
	C1.1,7.9,0.9,8,0.7,8z" />
  </svg>
